<?xml version="1.0" standalone="no"?><!DOCTYPE svg PUBLIC "-//W3C//DTD SVG 1.1//EN" "http://www.w3.org/Graphics/SVG/1.1/DTD/svg11.dtd"><svg class="icon" height="512" viewBox="0 0 1024 1024" version="1.1" xmlns="http://www.w3.org/2000/svg"><path d="M512.1 511.9m-447.7 0a447.7 447.7 0 1 0 895.4 0 447.7 447.7 0 1 0-895.4 0Z" fill="#6ABCE6" /><path d="M384.1 379.9c0 45.7 24.4 87.9 63.9 110.7 39.6 22.8 88.3 22.8 127.9 0 39.6-22.8 63.9-65.1 63.9-110.7 0-45.7-24.4-87.9-63.9-110.7-39.6-22.8-88.3-22.8-127.9 0-39.5 22.8-63.9 65-63.9 110.7M622.3 772H401.7c-58.6 0-106.6-48-106.6-106.6 0-58.6 48-106.6 106.6-106.6h220.6c58.6 0 106.6 48 106.6 106.6 0 58.6-48 106.6-106.6 106.6" fill="#FFFFFF" /></svg>